<svg xmlns="http://www.w3.org/2000/svg" viewBox="0 0 512 512" xml:space="preserve" fill-rule="evenodd" clip-rule="evenodd" stroke-linejoin="round" stroke-miterlimit="2"><path d="M73.21 300.269c5.951 31.525 8.481 63.909 8.804 96.846-.002.094-.001.188.002.281.158 16.807-.257 33.751-1.084 50.798a5 5 0 0 0 3.699 5.072c115.439 30.95 227.861 27.187 337.203-11.974a4.998 4.998 0 0 0 3.154-3.452c5.125-19.758 8.86-39.715 10.95-59.913l.003-.022.003-.031.003-.028c3.02-29.252 2.59-58.991-2.061-89.335C473.993 265.299 501 221.923 501 172.288c0-74.058-60.126-134.185-134.185-134.185-36.061 0-68.819 14.255-92.945 37.438-15.206-16.458-36.973-26.771-61.129-26.771-40.773 0-74.734 29.385-81.851 68.113a96.295 96.295 0 0 0-23.631-2.928C54.132 113.955 11 157.087 11 210.214c0 41.142 25.866 76.29 62.21 90.055Zm352.876-18.846C464.745 260.364 491 219.368 491 172.288c0-68.539-55.646-124.185-124.185-124.185-35.171 0-66.946 14.654-89.552 38.185a4.939 4.939 0 0 1-.438.416l-.028.023-.026.021-.013.011a2.958 2.958 0 0 1-.065.052c-25.745 20.374-56.596 38.236-97.463 45.366a5.002 5.002 0 0 1-5.785-4.066 5.002 5.002 0 0 1 4.066-5.785c36.845-6.428 65.132-22.057 88.864-40.16-13.374-14.388-32.46-23.396-53.634-23.396-37.647 0-68.698 28.471-72.769 65.039a5.002 5.002 0 0 1-6.49 4.21 86.104 86.104 0 0 0-26.223-4.064C59.651 123.955 21 162.607 21 210.214c0 47.608 38.651 86.26 86.259 86.26 31.913 0 64.552-6.158 90.577-26.22a5.003 5.003 0 0 1 7.013.908 5.001 5.001 0 0 1-.908 7.012c-27.803 21.433-62.588 28.3-96.682 28.3a96.318 96.318 0 0 1-23.268-2.837c5.151 29.166 7.506 59.033 7.969 89.375a644.138 644.138 0 0 0 25.762 4.007c1.022-14.418.82-29.243-1.188-44.67a5.003 5.003 0 0 1 4.312-5.604 5.003 5.003 0 0 1 5.604 4.313c2.125 16.317 2.32 31.989 1.207 47.225a665.755 665.755 0 0 0 21.283 2.194c.142-10.926-.107-21.85-.926-32.774a5.003 5.003 0 0 1 4.612-5.36 5.003 5.003 0 0 1 5.36 4.612c.858 11.439 1.108 22.877.944 34.315 62.581 4.499 126.383.352 191.313-11.174a5.002 5.002 0 0 1 5.797 4.049 5.003 5.003 0 0 1-4.049 5.797c-67.408 11.966-133.616 16.063-198.514 10.945l-.015-.001-.032-.003-.11-.009a677.307 677.307 0 0 1-31.177-3.193l-.512-.065a656.432 656.432 0 0 1-29.585-4.437c.024 13.736-.316 27.562-.937 41.457 111.156 29.056 219.461 25.331 324.856-11.871 4.072-16.098 7.192-32.332 9.215-48.724a1088.543 1088.543 0 0 1-13.741 3.417l-.148.035a1025.619 1025.619 0 0 1-22.854 5.245 5.001 5.001 0 0 1-5.948-3.823 5.002 5.002 0 0 1 3.823-5.948 1017.35 1017.35 0 0 0 19.541-4.453c1.243-8.33.942-18.5.331-27.162a5.003 5.003 0 0 1 4.635-5.34 5.003 5.003 0 0 1 5.34 4.636c.565 8.007.825 17.192.055 25.342 3.37-.839 6.743-1.696 10.119-2.572 2.457-26.218 2.047-52.846-1.824-79.965-17.482 8.347-37.047 13.021-57.694 13.021-2.76 0-5-2.241-5-5 0-2.76 2.24-5 5-5 21.398 0 41.539-5.424 59.131-14.975l.14-.076ZM124.21 337.254c-.41-2.105-.854-4.222-1.332-6.35a5.001 5.001 0 0 0-5.974-3.782 5.001 5.001 0 0 0-3.782 5.974c.456 2.034.88 4.057 1.272 6.069a5.002 5.002 0 0 0 5.863 3.953 5.004 5.004 0 0 0 3.953-5.864ZM424.2 94.19c23.972 17.653 39.541 46.072 39.541 78.098 0 2.76 2.24 5 5 5 2.759 0 5-2.24 5-5 0-35.327-17.168-66.677-43.612-86.15a5.002 5.002 0 0 0-6.991 1.061 5.003 5.003 0 0 0 1.062 6.991Zm-37.83-16.851a96.149 96.149 0 0 1 20.719 6.773 5.003 5.003 0 0 0 6.628-2.464 5.003 5.003 0 0 0-2.464-6.628 106.174 106.174 0 0 0-22.873-7.477 5.002 5.002 0 0 0-5.903 3.893 5.003 5.003 0 0 0 3.893 5.903Z" fill="#f53e28" class="fill-000000"></path></svg>